<svg xmlns="http://www.w3.org/2000/svg" width="410" height="404" viewBox="0 0 410 404" fill="none">
  <path d="M399.641 59.5246L215.643 388.545C211.844 395.338 202.084 395.378 198.228 388.618L10.5817 59.5563C6.38087 52.1896 12.6802 43.2665 21.0281 44.7586L205.223 77.6824C206.398 77.8924 207.601 77.8904 208.776 77.6763L389.119 44.8058C397.439 43.2894 403.768 52.1434 399.641 59.5246Z" fill="#40B3FF"/>
  <path d="M292.965 1.5744L156.801 28.2552C155.337 28.5431 154.011 29.2473 153.01 30.2746L12.5227 174.07C7.04417 179.704 11.9787 188.77 19.5644 187.417L163.125 162.212C164.534 161.964 165.86 161.27 166.861 160.257L296.251 32.2907C301.724 26.908 296.792 17.9586 289.223 19.3619Z" fill="#FFEA83"/>
  <path d="M299.394 113.873L174.541 139.162C173.071 139.462 171.739 140.171 170.738 141.205L99.9725 214.418C94.4768 220.08 99.428 229.178 107.058 227.82L229.074 205.324C230.515 205.064 231.873 204.341 232.873 203.289L304.675 129.333C310.151 123.671 305.218 114.604 297.648 116.011Z" fill="#FF5C5C"/>
</svg>
